<svg width="100" height="100" xmlns="http://www.w3.org/2000/svg" preserveAspectRatio="xMidYMid meet">
 <metadata>Created by potrace 1.15, written by Peter Selinger 2001-2017</metadata>

 <g>
  <title>background</title>
  <rect fill="none" id="canvas_background" height="402" width="582" y="-1" x="-1"/>
 </g>
 <g>
  <title>Layer 1</title>
  <g id="svg_1" fill="#000000" transform="translate(0,100) scale(0.10000000149011612,-0.10000000149011612) ">
   <path fill="#03cd32" id="svg_2" d="m299,587l-182,-122l-1,-87c0,-49 3,-88 7,-88c4,0 90,55 190,121l183,122l183,-122c100,-66 186,-121 190,-121c4,0 7,39 7,88l-1,87l-184,123c-102,67 -191,122 -197,121c-7,0 -95,-55 -195,-122z"/>
  </g>
 </g>
</svg>